<!DOCTYPE svg PUBLIC "-//W3C//DTD SVG 1.1//EN" "http://www.w3.org/Graphics/SVG/1.1/DTD/svg11.dtd">
<!-- Uploaded to: SVG Repo, www.svgrepo.com, Transformed by: SVG Repo Mixer Tools -->
<svg fill="#ffffff" height="800px" width="800px" version="1.1" id="Layer_1" xmlns="http://www.w3.org/2000/svg" xmlns:xlink="http://www.w3.org/1999/xlink" viewBox="0 0 512 512" xml:space="preserve" stroke="#ffffff">
<g id="SVGRepo_bgCarrier" stroke-width="0"/>
<g id="SVGRepo_tracerCarrier" stroke-linecap="round" stroke-linejoin="round"/>
<g id="SVGRepo_iconCarrier"> <g> <g> <path d="M266.667,64h-85.333c-17.673,0-32,14.327-32,32v352c0.056,13.512,8.594,25.533,21.333,30.037v23.296 c0,5.891,4.776,10.667,10.667,10.667c5.891,0,10.667-4.776,10.667-10.667V480h64v21.333c0,5.891,4.776,10.667,10.667,10.667 s10.667-4.776,10.667-10.667v-23.296c12.74-4.504,21.277-16.525,21.333-30.037V96C298.667,78.327,284.34,64,266.667,64z M277.333,448c0,5.891-4.776,10.667-10.667,10.667h-85.333c-5.891,0-10.667-4.776-10.667-10.667V96 c0-5.891,4.776-10.667,10.667-10.667h85.333c5.891,0,10.667,4.776,10.667,10.667V448z"/> </g> </g> <g> <g> <circle cx="224" cy="224" r="21.333"/> </g> </g> <g> <g> <circle cx="224" cy="288" r="21.333"/> </g> </g> <g> <g> <path d="M277.333,32c-5.891,0-10.667,4.776-10.667,10.667c0,5.891,4.776,10.667,10.667,10.667c17.673,0,32,14.327,32,32 C309.333,91.224,314.109,96,320,96s10.667-4.776,10.667-10.667C330.631,55.893,306.774,32.035,277.333,32z"/> </g> </g> <g> <g> <path d="M277.333,0c-5.891,0-10.667,4.776-10.667,10.667c0,5.891,4.776,10.667,10.667,10.667c35.329,0.041,63.959,28.671,64,64 C341.333,91.224,346.109,96,352,96s10.667-4.776,10.667-10.667C362.614,38.227,324.44,0.053,277.333,0z"/> </g> </g> </g>
</svg>