<!DOCTYPE svg PUBLIC "-//W3C//DTD SVG 1.1//EN" "http://www.w3.org/Graphics/SVG/1.1/DTD/svg11.dtd">
<!-- Uploaded to: SVG Repo, www.svgrepo.com, Transformed by: SVG Repo Mixer Tools -->
<svg fill="#ffffff" height="800px" width="800px" version="1.1" id="Layer_1" xmlns="http://www.w3.org/2000/svg" xmlns:xlink="http://www.w3.org/1999/xlink" viewBox="0 0 302.614 302.614" xml:space="preserve" stroke="#ffffff">
<g id="SVGRepo_bgCarrier" stroke-width="0"/>
<g id="SVGRepo_tracerCarrier" stroke-linecap="round" stroke-linejoin="round"/>
<g id="SVGRepo_iconCarrier"> <g> <g> <g> <path d="M287.613,153.457H66.307V85.829c6.09-4.766,10.015-12.176,10.015-20.491c0-14.345-11.67-26.016-26.015-26.016 c-14.345,0-26.015,11.67-26.015,26.016c0,8.314,3.925,15.725,10.015,20.491v67.628H15c-8.271,0-15,6.729-15,15v94.011 c0,8.271,6.729,15,15,15h9.292v15.998c0,2.761,2.239,5,5,5h42.03c2.761,0,5-2.239,5-5v-15.998h149.97v15.998c0,2.761,2.239,5,5,5 h42.03c2.761,0,5-2.239,5-5v-15.998h9.292c8.271,0,15-6.729,15-15v-94.011C302.613,160.186,295.884,153.457,287.613,153.457z M34.292,65.339c0-8.832,7.184-16.016,16.015-16.016s16.015,7.185,16.015,16.016c0,8.913-7.33,16.015-16.015,16.015 C41.503,81.354,34.292,74.147,34.292,65.339z M56.307,90.647v62.809h-12V90.647C48.123,91.552,52.204,91.619,56.307,90.647z M66.322,288.465h-32.03v-10.998h32.03V288.465z M268.322,288.465h-32.03v-10.998h32.03V288.465z M292.613,262.468 c0,2.757-2.243,5-5,5c-3.402,0-269.37,0-272.613,0c-2.757,0-5-2.243-5-5v-94.011c0-2.757,2.243-5,5-5c8.34,0,254.416,0,272.613,0 c2.757,0,5,2.243,5,5V262.468z"/> <path d="M123.763,117.994c-1.952,1.953-1.951,5.119,0.003,7.071c1.953,1.952,5.119,1.951,7.071-0.002 c33.051-33.073,33.059-86.367,0-119.449c-1.952-1.954-5.118-1.955-7.071-0.002c-1.954,1.952-1.955,5.118-0.003,7.071 C152.91,41.85,152.917,88.821,123.763,117.994z"/> <path d="M107.114,101.343c-1.953,1.953-1.953,5.119,0,7.071c1.954,1.953,5.119,1.952,7.071,0 c23.834-23.835,23.84-62.312,0-86.151c-1.953-1.952-5.118-1.952-7.071,0c-1.953,1.953-1.953,5.119,0,7.071 C127.041,49.261,127.045,81.412,107.114,101.343z"/> <path d="M90.474,91.774c1.953,1.953,5.118,1.953,7.071,0.001c14.617-14.615,14.619-38.254,0-52.871 c-1.952-1.952-5.119-1.953-7.071,0c-1.953,1.953-1.953,5.118,0.001,7.071c10.708,10.707,10.709,28.02,0,38.728 C88.521,86.655,88.521,89.821,90.474,91.774z"/> <path d="M82.01,198.463H41.292c-9.374,0-17,7.626-17,17c0,9.374,7.626,17,17,17H82.01c9.374,0,17-7.626,17-17 C99.01,206.088,91.384,198.463,82.01,198.463z M82.01,222.463H41.292c-3.86,0-7-3.14-7-7c0-3.86,3.14-7,7-7H82.01 c3.86,0,7,3.14,7,7C89.01,219.322,85.87,222.463,82.01,222.463z"/> <path d="M171.666,198.463h-40.719c-9.374,0-17,7.626-17,17c0,9.374,7.626,17,17,17h40.719c9.374,0,17-7.626,17-17 C188.666,206.088,181.04,198.463,171.666,198.463z M171.666,222.463h-40.719c-3.86,0-7-3.14-7-7c0-3.86,3.14-7,7-7h40.719 c3.86,0,7,3.14,7,7C178.666,219.322,175.526,222.463,171.666,222.463z"/> <path d="M261.322,198.463h-40.718c-9.374,0-17,7.626-17,17c0,9.374,7.626,17,17,17h40.718c9.374,0,17-7.626,17-17 C278.322,206.088,270.696,198.463,261.322,198.463z M261.322,222.463h-40.718c-3.86,0-7-3.14-7-7c0-3.86,3.14-7,7-7h40.718 c3.86,0,7,3.14,7,7C268.322,219.322,265.182,222.463,261.322,222.463z"/> </g> </g> </g> </g>
</svg>